<svg width="20px" height="20px" viewBox="0 0 10 13" fill="none" xmlns="http://www.w3.org/2000/svg">
<path d="M0.227273 13L0 11.4111L2.59091 5.74167C2.81818 5.91018 3.06455 6.05174 3.33 6.16633C3.59545 6.28093 3.87939 6.36807 4.18182 6.42778L1.68182 11.8806L0.227273 13ZM9.77273 13L8.31818 11.8806L5.81818 6.42778C6.12121 6.36759 6.40546 6.2802 6.67091 6.16561C6.93636 6.05102 7.18242 5.9097 7.40909 5.74167L10 11.4111L9.77273 13ZM5 5.77778C4.24242 5.77778 3.59848 5.56713 3.06818 5.14583C2.53788 4.72454 2.27273 4.21296 2.27273 3.61111C2.27273 3.14167 2.44333 2.7235 2.78455 2.35661C3.12576 1.98972 3.56121 1.73381 4.09091 1.58889V0H5.90909V1.58889C6.43939 1.73333 6.87515 1.98924 7.21636 2.35661C7.55758 2.72398 7.72788 3.14215 7.72727 3.61111C7.72727 4.21296 7.46212 4.72454 6.93182 5.14583C6.40152 5.56713 5.75758 5.77778 5 5.77778ZM5 4.33333C5.25758 4.33333 5.47364 4.264 5.64818 4.12533C5.82273 3.98667 5.9097 3.81526 5.90909 3.61111C5.90849 3.40696 5.82121 3.23556 5.64727 3.09689C5.47333 2.95822 5.25758 2.88889 5 2.88889C4.74242 2.88889 4.52667 2.95822 4.35273 3.09689C4.17879 3.23556 4.09152 3.40696 4.09091 3.61111C4.0903 3.81526 4.17758 3.98691 4.35273 4.12606C4.52788 4.2652 4.74364 4.3343 5 4.33333Z" fill="#ababab"/>
</svg>
