<svg width="1020" height="124" viewBox="0 0 1020 124" fill="none" xmlns="http://www.w3.org/2000/svg">
<path d="M85.9891 51.4545C85.9891 61.4848 84.1103 70.0758 80.3528 77.2273C76.6255 84.3485 71.5346 89.803 65.08 93.5909C58.6558 97.3788 51.3679 99.2727 43.2164 99.2727C35.0649 99.2727 27.7619 97.3788 21.3073 93.5909C14.8831 89.7727 9.79216 84.303 6.03458 77.1818C2.30731 70.0303 0.44367 61.4545 0.44367 51.4545C0.44367 41.4242 2.30731 32.8485 6.03458 25.7273C9.79216 18.5758 14.8831 13.1061 21.3073 9.31818C27.7619 5.5303 35.0649 3.63636 43.2164 3.63636C51.3679 3.63636 58.6558 5.5303 65.08 9.31818C71.5346 13.1061 76.6255 18.5758 80.3528 25.7273C84.1103 32.8485 85.9891 41.4242 85.9891 51.4545ZM69.0346 51.4545C69.0346 44.3939 67.9285 38.4394 65.7164 33.5909C63.5346 28.7121 60.5043 25.0303 56.6255 22.5455C52.7467 20.0303 48.277 18.7727 43.2164 18.7727C38.1558 18.7727 33.6861 20.0303 29.8073 22.5455C25.9285 25.0303 22.8831 28.7121 20.6709 33.5909C18.4891 38.4394 17.3982 44.3939 17.3982 51.4545C17.3982 58.5151 18.4891 64.4848 20.6709 69.3636C22.8831 74.2121 25.9285 77.8939 29.8073 80.4091C33.6861 82.8939 38.1558 84.1364 43.2164 84.1364C48.277 84.1364 52.7467 82.8939 56.6255 80.4091C60.5043 77.8939 63.5346 74.2121 65.7164 69.3636C67.9285 64.4848 69.0346 58.5151 69.0346 51.4545ZM43.2619 123.136C40.6255 123.136 38.3679 122.258 36.4891 120.5C34.6406 118.742 33.7164 116.636 33.7164 114.182C33.7164 111.727 34.6406 109.621 36.4891 107.864C38.3679 106.106 40.6103 105.227 43.2164 105.227C45.8528 105.227 48.0952 106.106 49.9437 107.864C51.8225 109.621 52.7619 111.727 52.7619 114.182C52.7619 116.636 51.8225 118.742 49.9437 120.5C48.0952 122.258 45.8679 123.136 43.2619 123.136ZM154.895 47.8402L140.247 49.4382C139.833 47.9586 139.108 46.5677 138.072 45.2656C137.066 43.9635 135.704 42.913 133.988 42.114C132.272 41.315 130.171 40.9155 127.685 40.9155C124.341 40.9155 121.529 41.6405 119.251 43.0906C117.002 44.5406 115.892 46.4197 115.922 48.728C115.892 50.7107 116.617 52.3235 118.097 53.5664C119.606 54.8093 122.092 55.8303 125.554 56.6293L137.184 59.1151C143.635 60.5059 148.429 62.7106 151.566 65.729C154.733 68.7475 156.331 72.6982 156.36 77.581C156.331 81.8719 155.073 85.6598 152.587 88.9446C150.131 92.1998 146.713 94.7448 142.333 96.5795C137.953 98.4143 132.923 99.3317 127.241 99.3317C118.896 99.3317 112.178 97.5857 107.088 94.0938C101.998 90.5722 98.965 85.6746 97.9884 79.4009L113.658 77.8917C114.368 80.9693 115.877 83.2924 118.186 84.8608C120.494 86.4292 123.497 87.2134 127.197 87.2134C131.014 87.2134 134.077 86.4292 136.385 84.8608C138.723 83.2924 139.892 81.354 139.892 79.0458C139.892 77.0927 139.137 75.4799 137.628 74.2074C136.148 72.9349 133.84 71.9583 130.703 71.2777L119.073 68.8363C112.533 67.475 107.695 65.1816 104.558 61.956C101.421 58.7008 99.8676 54.5874 99.8972 49.6158C99.8676 45.4136 101.007 41.7737 103.315 38.696C105.653 35.5888 108.893 33.1918 113.036 31.505C117.209 29.7886 122.018 28.9304 127.463 28.9304C135.453 28.9304 141.741 30.632 146.328 34.0352C150.945 37.4383 153.8 42.04 154.895 47.8402ZM185.679 58.0497V98H169.61V7.09091H185.324V41.4038H186.123C187.721 37.5567 190.192 34.5234 193.536 32.304C196.91 30.0549 201.201 28.9304 206.409 28.9304C211.144 28.9304 215.272 29.9218 218.794 31.9045C222.315 33.8872 225.038 36.7873 226.961 40.6048C228.914 44.4222 229.891 49.0831 229.891 54.5874V98H213.822V57.0732C213.822 52.4863 212.638 48.9203 210.271 46.3754C207.933 43.8008 204.648 42.5135 200.417 42.5135C197.576 42.5135 195.031 43.1349 192.782 44.3778C190.562 45.5911 188.816 47.3519 187.544 49.6602C186.301 51.9684 185.679 54.7649 185.679 58.0497ZM246.271 98V29.8182H262.339V98H246.271ZM254.349 20.1413C251.804 20.1413 249.615 19.2979 247.78 17.6111C245.945 15.8948 245.028 13.8381 245.028 11.441C245.028 9.01444 245.945 6.95774 247.78 5.27095C249.615 3.55457 251.804 2.69638 254.349 2.69638C256.924 2.69638 259.114 3.55457 260.919 5.27095C262.754 6.95774 263.671 9.01444 263.671 11.441C263.671 13.8381 262.754 15.8948 260.919 17.6111C259.114 19.2979 256.924 20.1413 254.349 20.1413ZM294.932 58.0497V98H278.863V29.8182H294.222V41.4038H295.021C296.589 37.5863 299.09 34.553 302.523 32.304C305.985 30.0549 310.261 28.9304 315.351 28.9304C320.057 28.9304 324.155 29.9366 327.647 31.9489C331.169 33.9612 333.891 36.8761 335.815 40.6935C337.768 44.511 338.73 49.1423 338.7 54.5874V98H322.631V57.0732C322.631 52.5159 321.447 48.9499 319.08 46.3754C316.742 43.8008 313.502 42.5135 309.359 42.5135C306.547 42.5135 304.047 43.1349 301.857 44.3778C299.697 45.5911 297.995 47.3519 296.752 49.6602C295.539 51.9684 294.932 54.7649 294.932 58.0497ZM384.776 99.3317C378.118 99.3317 372.347 97.8668 367.464 94.9371C362.581 92.0075 358.793 87.9089 356.101 82.6413C353.437 77.3738 352.106 71.2185 352.106 64.1754C352.106 57.1323 353.437 50.9622 356.101 45.6651C358.793 40.368 362.581 36.2546 367.464 33.3249C372.347 30.3952 378.118 28.9304 384.776 28.9304C391.434 28.9304 397.205 30.3952 402.088 33.3249C406.971 36.2546 410.744 40.368 413.407 45.6651C416.1 50.9622 417.446 57.1323 417.446 64.1754C417.446 71.2185 416.1 77.3738 413.407 82.6413C410.744 87.9089 406.971 92.0075 402.088 94.9371C397.205 97.8668 391.434 99.3317 384.776 99.3317ZM384.865 86.4588C388.475 86.4588 391.494 85.4674 393.92 83.4847C396.347 81.4724 398.152 78.7795 399.336 75.4059C400.549 72.0323 401.156 68.274 401.156 64.131C401.156 59.9584 400.549 56.1854 399.336 52.8118C398.152 49.4086 396.347 46.7009 393.92 44.6886C391.494 42.6763 388.475 41.6701 384.865 41.6701C381.166 41.6701 378.088 42.6763 375.632 44.6886C373.205 46.7009 371.385 49.4086 370.172 52.8118C368.988 56.1854 368.396 59.9584 368.396 64.131C368.396 68.274 368.988 72.0323 370.172 75.4059C371.385 78.7795 373.205 81.4724 375.632 83.4847C378.088 85.4674 381.166 86.4588 384.865 86.4588ZM378.606 20.8516L388.549 0.565695H404.263L390.635 20.8516H378.606ZM443.203 98L423.938 29.8182H440.318L452.303 77.7585H452.924L465.176 29.8182H481.378L493.629 77.4922H494.295L506.103 29.8182H522.527L503.217 98H486.483L473.699 51.924H472.766L459.982 98H443.203ZM561.534 99.3317C554.875 99.3317 549.105 97.8668 544.222 94.9371C539.339 92.0075 535.551 87.9089 532.858 82.6413C530.195 77.3738 528.863 71.2185 528.863 64.1754C528.863 57.1323 530.195 50.9622 532.858 45.6651C535.551 40.368 539.339 36.2546 544.222 33.3249C549.105 30.3952 554.875 28.9304 561.534 28.9304C568.192 28.9304 573.963 30.3952 578.846 33.3249C583.728 36.2546 587.501 40.368 590.165 45.6651C592.858 50.9622 594.204 57.1323 594.204 64.1754C594.204 71.2185 592.858 77.3738 590.165 82.6413C587.501 87.9089 583.728 92.0075 578.846 94.9371C573.963 97.8668 568.192 99.3317 561.534 99.3317ZM561.623 86.4588C565.233 86.4588 568.251 85.4674 570.678 83.4847C573.105 81.4724 574.91 78.7795 576.093 75.4059C577.307 72.0323 577.913 68.274 577.913 64.131C577.913 59.9584 577.307 56.1854 576.093 52.8118C574.91 49.4086 573.105 46.7009 570.678 44.6886C568.251 42.6763 565.233 41.6701 561.623 41.6701C557.923 41.6701 554.846 42.6763 552.39 44.6886C549.963 46.7009 548.143 49.4086 546.93 52.8118C545.746 56.1854 545.154 59.9584 545.154 64.131C545.154 68.274 545.746 72.0323 546.93 75.4059C548.143 78.7795 549.963 81.4724 552.39 83.4847C554.846 85.4674 557.923 86.4588 561.623 86.4588ZM555.674 20.8516L542.047 0.565695H557.805L567.704 20.8516H555.674ZM691.109 30.5C690.685 26.5303 688.897 23.4394 685.746 21.2273C682.624 19.0151 678.564 17.9091 673.564 17.9091C670.049 17.9091 667.033 18.4394 664.518 19.5C662.003 20.5606 660.079 22 658.746 23.8182C657.412 25.6364 656.73 27.7121 656.7 30.0455C656.7 31.9848 657.139 33.6667 658.018 35.0909C658.927 36.5152 660.155 37.7273 661.7 38.7273C663.246 39.697 664.958 40.5151 666.836 41.1818C668.715 41.8485 670.609 42.4091 672.518 42.8636L681.246 45.0455C684.761 45.8636 688.139 46.9697 691.382 48.3636C694.655 49.7576 697.579 51.5152 700.155 53.6364C702.761 55.7576 704.821 58.3182 706.336 61.3182C707.852 64.3182 708.609 67.8333 708.609 71.8636C708.609 77.3182 707.215 82.1212 704.427 86.2727C701.639 90.3939 697.609 93.6212 692.336 95.9545C687.094 98.2576 680.746 99.4091 673.291 99.4091C666.049 99.4091 659.761 98.2879 654.427 96.0455C649.124 93.803 644.973 90.5303 641.973 86.2273C639.003 81.9242 637.397 76.6818 637.155 70.5H653.746C653.988 73.7424 654.988 76.4394 656.746 78.5909C658.503 80.7424 660.791 82.3485 663.609 83.4091C666.458 84.4697 669.639 85 673.155 85C676.821 85 680.033 84.4545 682.791 83.3636C685.579 82.2424 687.761 80.697 689.336 78.7273C690.912 76.7273 691.715 74.3939 691.746 71.7273C691.715 69.303 691.003 67.303 689.609 65.7273C688.215 64.1212 686.261 62.7879 683.746 61.7273C681.261 60.6364 678.352 59.6667 675.018 58.8182L664.427 56.0909C656.761 54.1212 650.7 51.1364 646.246 47.1364C641.821 43.1061 639.609 37.7576 639.609 31.0909C639.609 25.6061 641.094 20.803 644.064 16.6818C647.064 12.5606 651.139 9.36363 656.291 7.0909C661.442 4.78787 667.276 3.63636 673.791 3.63636C680.397 3.63636 686.185 4.78787 691.155 7.0909C696.155 9.36363 700.079 12.5303 702.927 16.5909C705.776 20.6212 707.246 25.2576 707.336 30.5H691.109ZM756.764 29.8182V42.2472H717.569V29.8182H756.764ZM727.246 13.483H743.314V77.4922C743.314 79.6525 743.64 81.3097 744.291 82.4638C744.972 83.5883 745.859 84.3577 746.954 84.772C748.049 85.1863 749.263 85.3935 750.594 85.3935C751.6 85.3935 752.518 85.3195 753.346 85.1715C754.205 85.0236 754.856 84.8904 755.299 84.772L758.007 97.3342C757.149 97.6301 755.921 97.9556 754.323 98.3107C752.755 98.6658 750.831 98.873 748.552 98.9322C744.528 99.0505 740.903 98.4439 737.677 97.1122C734.451 95.7509 731.892 93.6499 729.998 90.8089C728.133 87.968 727.216 84.4169 727.246 80.1555V13.483ZM813.66 69.3246V29.8182H829.729V98H814.148V85.8817H813.438C811.899 89.6992 809.369 92.8213 805.848 95.2479C802.356 97.6745 798.05 98.8878 792.93 98.8878C788.462 98.8878 784.511 97.8964 781.079 95.9137C777.675 93.9014 775.012 90.9865 773.088 87.169C771.165 83.322 770.203 78.6759 770.203 73.2308V29.8182H786.272V70.745C786.272 75.0656 787.456 78.4983 789.823 81.0433C792.191 83.5883 795.298 84.8608 799.145 84.8608C801.512 84.8608 803.806 84.2837 806.025 83.1296C808.245 81.9755 810.065 80.2591 811.485 77.9805C812.935 75.6722 813.66 72.7869 813.66 69.3246ZM871.555 99.1985C866.199 99.1985 861.404 97.8224 857.173 95.0703C852.941 92.3182 849.597 88.3232 847.141 83.0852C844.685 77.8473 843.456 71.4848 843.456 63.9979C843.456 56.4221 844.699 50.0301 847.185 44.8217C849.701 39.5838 853.089 35.6332 857.35 32.9698C861.612 30.2769 866.361 28.9304 871.599 28.9304C875.594 28.9304 878.879 29.611 881.454 30.9723C884.028 32.304 886.07 33.9168 887.579 35.8107C889.089 37.6751 890.257 39.4358 891.086 41.093H891.752V7.09091H907.865V98H892.063V87.2578H891.086C890.257 88.915 889.059 90.6758 887.491 92.5401C885.922 94.3749 883.851 95.9433 881.276 97.2454C878.701 98.5475 875.461 99.1985 871.555 99.1985ZM876.038 86.0149C879.441 86.0149 882.341 85.0975 884.738 83.2628C887.135 81.3984 888.955 78.8091 890.198 75.4947C891.441 72.1803 892.063 68.3184 892.063 63.9091C892.063 59.4998 891.441 55.6675 890.198 52.4123C888.985 49.1571 887.18 46.6269 884.783 44.8217C882.415 43.0166 879.5 42.114 876.038 42.114C872.457 42.114 869.469 43.0462 867.072 44.9105C864.674 46.7749 862.869 49.3494 861.656 52.6342C860.443 55.919 859.836 59.6773 859.836 63.9091C859.836 68.1705 860.443 71.9731 861.656 75.3171C862.899 78.6315 864.719 81.2505 867.116 83.174C869.543 85.0679 872.517 86.0149 876.038 86.0149ZM924.988 98V29.8182H941.057V98H924.988ZM933.067 20.1413C930.522 20.1413 928.332 19.2979 926.498 17.6111C924.663 15.8948 923.745 13.8381 923.745 11.441C923.745 9.01444 924.663 6.95774 926.498 5.27095C928.332 3.55457 930.522 2.69638 933.067 2.69638C935.642 2.69638 937.832 3.55457 939.637 5.27095C941.472 6.95774 942.389 9.01444 942.389 11.441C942.389 13.8381 941.472 15.8948 939.637 17.6111C937.832 19.2979 935.642 20.1413 933.067 20.1413ZM987.322 99.3317C980.663 99.3317 974.893 97.8668 970.01 94.9371C965.127 92.0075 961.339 87.9089 958.646 82.6413C955.983 77.3738 954.651 71.2185 954.651 64.1754C954.651 57.1323 955.983 50.9622 958.646 45.6651C961.339 40.368 965.127 36.2546 970.01 33.3249C974.893 30.3952 980.663 28.9304 987.322 28.9304C993.98 28.9304 999.751 30.3952 1004.63 33.3249C1009.52 36.2546 1013.29 40.368 1015.95 45.6651C1018.65 50.9622 1019.99 57.1323 1019.99 64.1754C1019.99 71.2185 1018.65 77.3738 1015.95 82.6413C1013.29 87.9089 1009.52 92.0075 1004.63 94.9371C999.751 97.8668 993.98 99.3317 987.322 99.3317ZM987.411 86.4588C991.021 86.4588 994.039 85.4674 996.466 83.4847C998.893 81.4724 1000.7 78.7795 1001.88 75.4059C1003.09 72.0323 1003.7 68.274 1003.7 64.131C1003.7 59.9584 1003.09 56.1854 1001.88 52.8118C1000.7 49.4086 998.893 46.7009 996.466 44.6886C994.039 42.6763 991.021 41.6701 987.411 41.6701C983.712 41.6701 980.634 42.6763 978.178 44.6886C975.751 46.7009 973.931 49.4086 972.718 52.8118C971.534 56.1854 970.942 59.9584 970.942 64.131C970.942 68.274 971.534 72.0323 972.718 75.4059C973.931 78.7795 975.751 81.4724 978.178 83.4847C980.634 85.4674 983.712 86.4588 987.411 86.4588Z" fill="white"/>
</svg>
